<svg width="1342" height="179" viewBox="0 0 1342 179" fill="none" xmlns="http://www.w3.org/2000/svg">
<path fill-rule="evenodd" clip-rule="evenodd" d="M766.828 34.7607L793.988 69.5215L776.764 89.4444L733.836 34.7607H766.828Z" fill="#FC6D0B"/>
<path fill-rule="evenodd" clip-rule="evenodd" d="M198.132 72.0907C200.615 63.0231 199.587 56.061 195.047 51.2144C190.506 46.3628 182.556 43.9395 171.196 43.9395H127.618L101.396 139.849H122.566L133.136 101.185H147.02C150.132 101.185 152.584 101.682 154.378 102.67C156.172 103.658 157.226 105.411 157.55 107.924L161.325 139.849H184.005L180.327 110.079C179.577 103.435 176.476 99.5269 171.018 98.3599C177.975 96.3885 183.798 93.106 188.485 88.5276C193.172 83.9491 196.389 78.4718 198.132 72.0907ZM177.921 72.632C176.74 76.9423 174.455 80.1056 171.06 82.1266C167.665 84.1477 162.902 85.1608 156.761 85.1608H137.237L144.093 60.1032H163.611C169.753 60.1032 173.964 61.1113 176.254 63.1324C178.539 65.1535 179.097 68.3217 177.921 72.632Z" fill="white"/>
<path fill-rule="evenodd" clip-rule="evenodd" d="M258.864 71.5537L256.214 81.252C255.063 77.7511 252.849 74.9652 249.566 72.9044C246.277 70.8386 242.208 69.8008 237.349 69.8008C231.395 69.8008 225.669 71.3054 220.171 74.3147C214.678 77.324 209.875 81.5698 205.765 87.0471C201.656 92.5244 198.641 98.7664 196.726 105.768C194.81 112.775 194.425 118.948 195.58 124.291C196.731 129.634 199.229 133.746 203.07 136.616C206.911 139.491 211.856 140.926 217.906 140.926C222.761 140.926 227.387 139.938 231.775 137.962C236.163 135.99 239.887 133.249 242.958 129.748L240.191 139.849H260.668L279.345 71.5537H258.864ZM249.587 105.501C247.819 111.966 245.093 116.907 241.414 120.319C237.73 123.73 233.322 125.439 228.194 125.439C222.965 125.439 219.418 123.755 217.548 120.383C215.668 117.016 215.602 112.15 217.35 105.769C219.088 99.3928 221.87 94.4121 225.696 90.8168C229.516 87.2266 233.991 85.4289 239.129 85.4289C244.257 85.4289 247.728 87.162 249.532 90.6182C251.33 94.0744 251.356 99.0353 249.587 105.501Z" fill="white"/>
<path fill-rule="evenodd" clip-rule="evenodd" d="M352.979 71.5527H293.461L289.301 86.7779H323.939L278.143 125.571L274.236 139.848H335.675L339.84 124.627H302.734L349.219 85.2932L352.979 71.5527Z" fill="white"/>
<path fill-rule="evenodd" clip-rule="evenodd" d="M417.364 74.1111C412.652 71.2409 406.632 69.8008 399.3 69.8008C391.876 69.8008 385 71.2409 378.666 74.1111C372.337 76.9863 366.946 81.1179 362.497 86.5058C358.048 91.8937 354.836 98.1805 352.87 105.366C350.909 112.552 350.675 118.833 352.185 124.221C353.69 129.614 356.817 133.741 361.58 136.616C366.338 139.491 372.429 140.926 379.852 140.926C387.184 140.926 393.989 139.491 400.278 136.616C406.551 133.741 411.922 129.614 416.376 124.221C420.825 118.833 424.032 112.552 425.998 105.366C427.964 98.1805 428.192 91.8937 426.687 86.5058C425.183 81.1179 422.071 76.9863 417.364 74.1111ZM405.378 105.366C403.539 112.099 400.808 117.13 397.2 120.452C393.587 123.774 389.214 125.433 384.086 125.433C373.364 125.433 369.832 118.749 373.491 105.366C375.31 98.7165 378.051 93.711 381.72 90.3442C385.388 86.9773 389.832 85.2939 395.056 85.2939C400.189 85.2939 403.65 86.9773 405.429 90.3442C407.213 93.711 407.202 98.7165 405.378 105.366Z" fill="white"/>
<path fill-rule="evenodd" clip-rule="evenodd" d="M640.84 71.5537L638.19 81.252C637.04 77.7511 634.825 74.9652 631.542 72.9044C628.253 70.8386 624.184 69.8008 619.325 69.8008C613.371 69.8008 607.645 71.3054 602.147 74.3147C596.655 77.324 591.851 81.5698 587.741 87.0471C583.632 92.5244 580.617 98.7664 578.702 105.768C576.786 112.775 576.406 118.948 577.557 124.291C578.707 129.634 581.2 133.746 585.046 136.616C588.887 139.491 593.832 140.926 599.882 140.926C604.737 140.926 609.363 139.938 613.751 137.962C618.139 135.99 621.863 133.249 624.934 129.748L622.168 139.849H642.644L661.321 71.5537H640.84ZM631.56 105.501C629.792 111.966 627.066 116.907 623.387 120.319C619.703 123.73 615.29 125.439 610.162 125.439C604.943 125.439 601.391 123.755 599.521 120.383C597.641 117.016 597.575 112.15 599.323 105.769C601.061 99.3928 603.843 94.4121 607.669 90.8168C611.489 87.2266 615.964 85.4289 621.102 85.4289C626.23 85.4289 629.701 87.162 631.504 90.6182C633.303 94.0744 633.329 99.0353 631.56 105.501Z" fill="white"/>
<path fill-rule="evenodd" clip-rule="evenodd" d="M490.38 89.8733L495.599 71.2863C493.825 70.3874 491.474 69.9355 488.546 69.9355C483.869 69.9355 479.369 71.0827 475.032 73.3719C471.302 75.3384 468.13 78.0944 465.455 81.5556L468.166 71.5445L462.237 71.5544H447.694L428.88 139.849H449.64L459.399 104.155C460.823 98.9459 463.372 94.8838 467.061 91.9639C470.74 89.044 475.336 87.5841 480.833 87.5841C484.228 87.5841 487.405 88.3488 490.38 89.8733Z" fill="white"/>
<path fill-rule="evenodd" clip-rule="evenodd" d="M562.679 74.3137C558.828 71.3044 553.923 69.8047 547.969 69.8047C542.744 69.8047 537.769 70.9717 533.061 73.3056C528.339 75.6445 524.513 78.8276 521.579 82.8698L521.645 82.4179L525.131 71.5427H521.118V71.5527H504.868L499.704 90.4377C499.643 90.6562 499.593 90.8647 499.537 91.0832L478.245 168.947H499.005L509.727 129.747C510.776 133.248 512.96 135.989 516.269 137.961C519.583 139.937 523.662 140.925 528.521 140.925C534.571 140.925 540.322 139.49 545.785 136.615C551.242 133.745 555.985 129.633 560.008 124.29C564.037 118.951 567.006 112.774 568.921 105.767C570.837 98.7604 571.237 92.5233 570.127 87.0411C569.012 81.5687 566.53 77.3229 562.679 74.3137ZM548.17 105.767C546.422 112.148 543.716 117.015 540.047 120.382C536.374 123.753 531.976 125.432 526.848 125.432C521.715 125.432 518.218 123.729 516.359 120.317C514.494 116.905 514.443 111.965 516.217 105.499C517.985 99.0335 520.737 94.0677 524.476 90.6115C528.216 87.1553 532.655 85.4272 537.788 85.4272C542.824 85.4272 546.25 87.2248 548.064 90.8151C549.873 94.4103 549.908 99.396 548.17 105.767Z" fill="white"/>
<path fill-rule="evenodd" clip-rule="evenodd" d="M747.279 71.5716L747.294 71.5518H734.717C734.317 71.5518 733.962 71.5617 733.592 71.5716H727.071L723.732 76.1253C723.463 76.4729 723.194 76.8155 722.911 77.2178L722.546 77.7441L696.024 113.94L690.527 71.5518H668.804L679.805 135.963L655.508 168.946H656.202H668.606H677.154L683.042 160.773C683.215 160.529 683.362 160.331 683.549 160.072L690.42 150.528L690.613 150.255L721.355 107.544L747.258 71.6014L747.294 71.5716H747.279Z" fill="white"/>
<path fill-rule="evenodd" clip-rule="evenodd" d="M48.0456 54.9259L41.8333 77.3366L77.3894 54.8017L54.1363 139.827L77.7491 139.846L112.099 14.2607L48.0456 54.9259Z" fill="#3395FF"/>
<path fill-rule="evenodd" clip-rule="evenodd" d="M9.77449 104.104L0 139.848H48.4012C48.4012 139.848 68.1985 67.1537 68.2035 67.1289C68.1883 67.1438 9.77449 104.104 9.77449 104.104Z" fill="white"/>
<path fill-rule="evenodd" clip-rule="evenodd" d="M847.137 0L733.836 144.009H763.864L875.062 0H847.137Z" fill="white"/>
<path fill-rule="evenodd" clip-rule="evenodd" d="M785.961 102.267L845.033 178.77H880.128L796.237 72.0049L785.961 102.267Z" fill="white"/>
<path d="M940 45.0373H979.323C989.079 45.0373 996.672 47.3997 1002.1 52.1245C1007.53 56.7649 1010.25 63.1349 1010.25 71.2344C1010.25 79.334 1007.49 85.7462 1001.97 90.471C996.545 95.1957 988.994 97.5581 979.323 97.5581H956.416V135.145H940V45.0373ZM977.414 84.9025C983.098 84.9025 987.382 83.7635 990.267 81.4855C993.236 79.1231 994.721 75.7483 994.721 71.361C994.721 66.8893 993.279 63.5145 990.394 61.2365C987.51 58.8741 983.183 57.6929 977.414 57.6929H956.416V84.9025H977.414Z" fill="white"/>
<path d="M1082.71 71.2344V135.145H1067.06V124.894C1065.11 128.438 1062.31 131.222 1058.66 133.247C1055.01 135.187 1050.86 136.158 1046.19 136.158C1040.59 136.158 1035.63 134.808 1031.3 132.108C1026.98 129.408 1023.62 125.569 1021.25 120.591C1018.87 115.613 1017.69 109.834 1017.69 103.253C1017.69 96.6722 1018.87 90.8506 1021.25 85.7884C1023.71 80.6418 1027.1 76.6763 1031.43 73.8921C1035.76 71.0235 1040.68 69.5892 1046.19 69.5892C1050.86 69.5892 1055.01 70.6017 1058.66 72.6266C1062.31 74.5671 1065.11 77.3091 1067.06 80.8527V71.2344H1082.71ZM1050.52 123.755C1055.78 123.755 1059.85 121.941 1062.74 118.313C1065.62 114.685 1067.06 109.581 1067.06 103C1067.06 96.2503 1065.62 91.0616 1062.74 87.4336C1059.85 83.8057 1055.74 81.9917 1050.39 81.9917C1045.13 81.9917 1041.02 83.89 1038.05 87.6867C1035.16 91.399 1033.72 96.5878 1033.72 103.253C1033.72 109.834 1035.16 114.896 1038.05 118.44C1041.02 121.983 1045.17 123.755 1050.52 123.755Z" fill="white"/>
<path d="M1160.87 71.2344L1130.96 139.448C1127.57 147.379 1123.24 153.158 1117.98 156.786C1112.72 160.414 1106.23 162.819 1098.51 164L1094.95 151.851C1100.97 150.501 1105.47 148.771 1108.44 146.662C1111.49 144.637 1113.95 141.6 1115.82 137.55L1117.86 132.867L1091.13 71.2344H1107.8L1126.25 117.174L1145.09 71.2344H1160.87Z" fill="white"/>
<path d="M1203.75 69.7158C1206.21 69.7158 1208.33 70.0533 1210.11 70.7282L1209.99 85.1556C1207.27 84.0588 1204.47 83.5104 1201.59 83.5104C1196.16 83.5104 1192 85.0712 1189.12 88.1929C1186.32 91.3147 1184.92 95.4488 1184.92 100.595V135.145H1169.14V89.332C1169.14 82.5823 1168.8 76.5498 1168.12 71.2344H1183.01L1184.28 82.4979C1185.89 78.3638 1188.44 75.1999 1191.92 73.0062C1195.39 70.8126 1199.34 69.7158 1203.75 69.7158Z" fill="white"/>
<path d="M1246.87 136.158C1240.34 136.158 1234.57 134.808 1229.56 132.108C1224.64 129.408 1220.82 125.569 1218.11 120.591C1215.48 115.529 1214.16 109.623 1214.16 102.873C1214.16 96.1238 1215.48 90.26 1218.11 85.2822C1220.82 80.2199 1224.64 76.3389 1229.56 73.639C1234.57 70.9391 1240.34 69.5892 1246.87 69.5892C1253.32 69.5892 1259 70.9391 1263.92 73.639C1268.84 76.3389 1272.62 80.2199 1275.25 85.2822C1277.96 90.26 1279.32 96.1238 1279.32 102.873C1279.32 109.623 1277.96 115.529 1275.25 120.591C1272.62 125.569 1268.84 129.408 1263.92 132.108C1259 134.808 1253.32 136.158 1246.87 136.158ZM1246.74 123.755C1252.17 123.755 1256.29 122.026 1259.09 118.566C1261.97 115.023 1263.41 109.792 1263.41 102.873C1263.41 96.0394 1261.97 90.8506 1259.09 87.3071C1256.2 83.6791 1252.13 81.8651 1246.87 81.8651C1241.53 81.8651 1237.41 83.6791 1234.53 87.3071C1231.64 90.8506 1230.2 96.0394 1230.2 102.873C1230.2 109.792 1231.6 115.023 1234.4 118.566C1237.28 122.026 1241.4 123.755 1246.74 123.755Z" fill="white"/>
<path d="M1293.04 42H1308.82V135.145H1293.04V42Z" fill="white"/>
<path d="M1326.22 42H1342V135.145H1326.22V42Z" fill="white"/>
</svg>
